<?xml version="1.0" encoding="UTF-8"?>
<svg xmlns="http://www.w3.org/2000/svg" viewBox="0 0 200 200">
  <defs>
    <style>
      polygon {
        fill: #050000;
      }
      @media (prefers-color-scheme: dark) {
        polygon {
          fill: white;
	}
      }
    </style>
  </defs>
  <polygon points="166.52 47.77 166.35 47.48 155.6 47.48 188.27 103.53 100 187.2 11.73 103.53 44.39 47.48 33.64 47.48 .23 104.82 0 105.22 99.6 199.62 100 200 200 105.22 166.52 47.77"/>
  <polygon points="84.76 88.93 84.76 68.68 83.46 66.41 74.08 66.41 74.08 66.41 72.8 66.41 75.28 70.7 75.28 86.89 70.22 95.65 58.61 95.65 58.61 56.95 83.95 56.95 98.72 82.53 85.68 105.12 96.34 105.12 124.15 56.95 141.96 56.95 141.96 81.67 130.84 81.65 139.64 66.41 128.98 66.41 106.63 105.12 117.29 105.12 125.92 90.17 141.96 90.17 141.96 105.12 150.86 105.12 150.86 47.48 118.96 47.48 104.05 73.3 89.14 47.48 49.14 47.48 49.14 105.12 75.42 105.12 84.76 88.93"/>
</svg>